<?xml version="1.0" standalone="no"?>
<!DOCTYPE svg PUBLIC "-//W3C//DTD SVG 20010904//EN"
 "http://www.w3.org/TR/2001/REC-SVG-20010904/DTD/svg10.dtd">
<svg version="1.0" xmlns="http://www.w3.org/2000/svg"
 width="1024.000000pt" height="1024.000000pt" viewBox="0 0 1024.000000 1024.000000"
 preserveAspectRatio="xMidYMid meet">

<g transform="translate(0.000000,1024.000000) scale(0.100000,-0.100000)"
fill="#000000" stroke="none">
<path d="M2441 6744 c0 -11 3 -14 6 -6 3 7 2 16 -1 19 -3 4 -6 -2 -5 -13z"/>
<path d="M2420 6658 c-17 -80 -17 -79 -18 -105 -1 -13 -9 -23 -17 -23 -8 0
-15 -5 -15 -10 0 -6 -16 -24 -35 -41 -19 -17 -35 -37 -35 -44 0 -7 -9 -15 -20
-18 -14 -3 -20 -14 -20 -32 0 -20 -4 -26 -15 -21 -8 3 -15 1 -15 -4 0 -6 -4
-10 -8 -10 -11 0 -132 -119 -132 -130 0 -5 -9 -14 -20 -20 -10 -6 -22 -26 -26
-45 -5 -30 -10 -35 -33 -33 -34 2 -51 -8 -51 -33 0 -10 -9 -28 -20 -39 -11
-11 -20 -27 -20 -35 0 -8 -6 -15 -13 -15 -8 0 -20 -18 -27 -41 -8 -22 -17 -42
-22 -45 -13 -8 -38 -74 -38 -99 0 -13 -7 -25 -15 -28 -8 -4 -22 -32 -31 -64
-9 -32 -21 -63 -26 -70 -6 -7 -7 -30 -3 -52 4 -23 2 -48 -5 -60 -7 -14 -7 -21
0 -21 5 0 10 -9 10 -20 0 -11 -4 -20 -10 -20 -5 0 -10 -15 -10 -34 0 -18 -7
-39 -14 -46 -21 -16 -39 -115 -33 -172 3 -26 1 -76 -4 -110 -6 -35 -12 -265
-14 -513 -2 -247 -3 -521 -4 -607 -1 -154 -2 -158 -22 -158 -21 0 -21 -3 -14
-76 4 -41 11 -90 16 -107 12 -42 12 -117 -1 -117 -11 0 -9 -132 3 -141 9 -6
16 -138 8 -143 -12 -8 5 -450 17 -454 7 -2 12 -26 12 -63 0 -33 4 -59 10 -59
6 0 10 -9 10 -20 0 -11 -4 -20 -10 -20 -5 0 -10 -9 -10 -20 0 -11 5 -20 10
-20 6 0 10 -9 10 -20 0 -11 5 -20 10 -20 6 0 10 -13 10 -29 0 -49 12 -91 26
-91 8 0 14 -9 14 -19 0 -11 5 -21 11 -23 6 -2 12 -35 14 -76 1 -40 6 -76 9
-79 3 -4 6 3 6 15 0 42 19 22 28 -30 5 -29 10 -43 11 -30 2 35 18 26 26 -14 3
-20 17 -47 31 -61 13 -13 24 -28 24 -33 0 -6 6 -10 14 -10 7 0 19 -13 26 -30
7 -16 19 -30 27 -30 10 0 12 -6 8 -20 -5 -17 -2 -20 24 -20 17 0 31 -4 31 -10
0 -5 16 -25 35 -44 19 -20 35 -42 35 -51 0 -10 10 -15 30 -15 23 0 30 -4 30
-20 0 -13 7 -20 19 -20 11 0 23 -9 26 -20 4 -13 15 -20 31 -20 13 0 24 -4 24
-10 0 -5 9 -10 20 -10 11 0 20 -4 20 -10 0 -5 9 -10 20 -10 13 0 20 -7 20 -20
0 -17 7 -20 40 -20 33 0 40 -3 40 -20 0 -13 7 -20 20 -20 11 0 20 -4 20 -10 0
-5 9 -10 20 -10 11 0 20 -4 20 -10 0 -5 9 -10 20 -10 11 0 20 -4 20 -10 0 -5
9 -10 20 -10 11 0 20 -4 20 -10 0 -5 16 -10 36 -10 21 0 41 -6 48 -15 8 -11
20 -14 44 -9 17 4 32 10 32 15 0 5 18 9 40 9 22 0 40 -4 40 -10 0 -5 9 -10 20
-10 11 0 20 -4 20 -10 0 -8 106 -13 218 -11 12 1 22 -4 22 -9 0 -14 43 -13 75
2 20 9 31 8 52 -3 20 -11 27 -11 30 -1 3 6 18 12 34 12 16 0 29 5 29 10 0 6 9
10 20 10 11 0 20 5 20 11 0 6 22 9 55 8 42 -2 55 -6 56 -18 0 -11 2 -12 6 -3
2 6 8 10 12 7 4 -2 115 -5 246 -6 171 -1 240 2 243 10 5 14 82 15 82 1 0 -5
18 -10 40 -10 22 0 40 5 40 10 0 6 105 10 296 10 249 0 298 -2 310 -15 17 -16
54 -20 54 -6 0 5 -6 12 -13 14 -6 3 25 6 71 6 48 1 82 -3 82 -9 0 -5 9 -10 20
-10 11 0 20 5 20 10 0 6 9 10 20 10 11 0 20 -4 20 -10 0 -5 9 -10 20 -10 11 0
20 5 20 10 0 6 67 10 180 10 113 0 180 4 180 10 0 6 33 10 80 10 47 0 80 4 80
10 0 6 29 10 68 10 86 0 206 18 210 30 2 6 18 10 35 10 36 0 96 20 115 37 7 7
35 15 62 19 28 4 50 12 50 18 0 7 23 19 51 26 28 8 60 22 71 32 12 10 32 18
45 18 13 0 26 7 29 15 4 8 18 15 33 15 29 1 54 17 64 42 3 10 17 20 31 24 18
4 25 12 23 27 -1 16 4 23 20 25 12 2 25 12 28 23 4 10 10 19 14 19 15 0 51 38
51 54 0 9 5 16 10 16 6 0 10 4 10 10 0 5 -8 7 -17 4 -16 -5 -16 -4 -2 8 8 7
18 20 22 28 4 8 23 35 42 60 20 25 38 52 41 61 3 9 17 22 30 28 13 6 24 17 24
25 0 19 14 24 175 57 77 16 161 38 187 49 26 11 51 20 56 20 5 0 34 11 63 25
71 34 39 26 -96 -23 -145 -52 -263 -72 -475 -80 -96 -4 -814 -7 -1595 -6
-1388 2 -1423 2 -1540 23 -367 63 -680 248 -875 516 -104 143 -172 304 -223
529 -20 89 -21 118 -24 1600 -4 1338 -2 1521 12 1609 17 113 14 140 -5 45z
m-720 -2508 c0 -5 -4 -10 -10 -10 -5 0 -10 5 -10 10 0 6 5 10 10 10 6 0 10 -4
10 -10z"/>
<path d="M6410 6644 c-41 -12 -94 -23 -118 -23 -51 -1 -53 -20 -4 -37 18 -5
38 -16 45 -23 9 -9 14 -117 20 -424 10 -522 9 -543 -24 -571 -15 -11 -34 -25
-43 -31 -12 -7 36 -10 160 -11 185 -2 186 -1 115 38 -64 35 -63 26 -61 594 0
283 -3 513 -7 513 -4 -1 -42 -12 -83 -25z"/>
<path d="M4071 6605 c-38 -33 -45 -56 -31 -100 15 -44 44 -65 91 -65 29 0 43
7 63 31 36 43 35 91 -3 130 -37 37 -79 38 -120 4z"/>
<path d="M3481 6589 c-72 -12 -164 -63 -211 -116 -85 -97 -95 -253 -23 -350
39 -54 84 -81 202 -123 133 -47 218 -90 257 -131 27 -29 29 -35 29 -118 0 -80
-2 -91 -27 -123 -36 -47 -85 -69 -157 -69 -119 -1 -212 70 -290 221 -23 44
-46 80 -50 80 -11 0 -21 -62 -21 -137 0 -58 3 -66 36 -103 20 -22 66 -54 102
-72 64 -32 71 -33 187 -33 l121 0 77 40 c67 34 82 46 110 94 83 140 79 131 74
203 -12 143 -94 224 -302 298 -192 67 -226 91 -251 177 -22 77 -13 111 43 164
47 43 47 43 122 44 63 0 85 -5 126 -27 58 -30 134 -107 164 -166 11 -22 25
-43 29 -46 12 -7 22 77 22 183 0 71 -2 82 -16 77 -8 -3 -46 3 -83 13 -86 24
-200 32 -270 20z"/>
<path d="M4155 6284 c-22 -13 -74 -35 -115 -49 -41 -13 -73 -25 -70 -25 3 -1
14 -3 25 -5 43 -8 45 -24 45 -330 0 -314 1 -309 -52 -328 -45 -16 -7 -23 127
-24 l145 -1 -31 36 -32 36 7 358 c4 197 4 358 -1 357 -4 0 -26 -12 -48 -25z"/>
<path d="M4475 6265 c-54 -30 -93 -45 -120 -46 l-40 -1 32 -14 c18 -7 37 -22
43 -33 12 -24 13 -265 0 -460 -8 -125 -12 -146 -29 -163 -12 -10 -21 -20 -21
-22 0 -2 61 -3 135 -2 74 1 135 4 135 8 0 4 -13 14 -30 23 l-30 16 0 265 c0
294 2 303 67 330 73 31 152 4 171 -58 6 -18 12 -147 15 -287 4 -237 3 -255
-15 -273 -10 -10 -18 -19 -18 -21 0 -1 56 -2 125 -2 104 0 122 2 108 13 -55
39 -53 28 -53 229 0 104 -5 219 -10 256 -13 91 2 130 62 157 64 28 129 10 173
-48 19 -25 20 -45 23 -292 3 -258 3 -266 -17 -284 -41 -37 -28 -41 116 -38
l138 3 -35 29 -35 29 -5 263 c-6 286 -10 311 -68 371 -90 95 -252 95 -346 0
l-26 -25 -50 46 c-31 27 -65 48 -86 52 -45 8 -142 -28 -180 -67 -15 -16 -32
-29 -37 -29 -6 0 -8 25 -4 60 3 33 2 60 -1 60 -4 0 -43 -20 -87 -45z"/>
<path d="M6881 6283 c-25 -8 -64 -29 -88 -47 -23 -17 -53 -39 -67 -49 -14 -9
-42 -52 -63 -94 -37 -75 -38 -80 -38 -183 1 -85 5 -116 24 -162 30 -76 104
-156 183 -198 52 -28 74 -34 128 -34 111 -1 158 23 266 137 90 95 106 117 84
117 -5 0 -10 -6 -10 -14 0 -30 -103 -106 -173 -128 -98 -32 -142 -18 -265 81
-53 43 -88 100 -100 167 l-9 52 261 5 c144 3 272 8 285 12 22 8 23 11 18 67
-11 120 -92 226 -203 268 -66 24 -169 26 -233 3z m124 -34 c60 -17 119 -82
140 -152 31 -106 38 -101 -174 -110 -101 -4 -191 -5 -199 -2 -22 8 -11 163 15
207 31 55 132 81 218 57z"/>
<path d="M5615 6264 c-38 -14 -89 -25 -112 -25 l-43 -1 35 -33 35 -32 -1 -279
c-1 -406 -11 -595 -32 -627 -9 -15 -17 -28 -17 -29 0 -2 65 -3 145 -3 l145 0
-26 19 c-36 26 -53 71 -59 158 -3 40 -8 97 -11 127 l-4 53 35 -30 c41 -37 82
-46 178 -40 85 6 140 31 180 82 15 20 34 36 41 36 8 0 22 20 32 44 11 25 28
49 39 54 15 7 27 33 44 91 42 146 14 267 -85 364 -72 70 -123 92 -214 92 -76
-1 -99 -9 -202 -73 -35 -22 -44 -10 -31 38 5 22 7 40 4 39 -3 0 -37 -12 -76
-25z m347 -73 c82 -52 125 -163 115 -295 -14 -189 -109 -316 -236 -316 -64 0
-99 17 -137 67 l-29 38 -6 205 c-4 113 -5 210 -4 215 2 6 6 23 10 38 6 32 48
54 125 67 86 15 114 11 162 -19z"/>
<path d="M3560 5354 c-188 -51 -307 -157 -366 -330 -24 -67 -28 -95 -28 -189
0 -81 5 -123 18 -160 80 -223 207 -337 426 -380 123 -25 162 -48 300 -180 110
-106 187 -164 260 -199 56 -26 76 -30 150 -30 113 0 208 30 289 89 34 25 61
48 61 51 0 4 -10 -1 -22 -10 -39 -28 -86 -46 -121 -46 -55 0 -138 19 -186 42
-46 22 -286 197 -393 285 l-56 47 30 15 c31 15 110 91 165 158 46 56 101 178
114 251 20 110 -12 269 -73 365 -37 58 -131 145 -196 180 -102 55 -255 72
-372 41z m244 -68 c146 -71 223 -254 213 -506 -6 -190 -60 -328 -147 -386 -33
-22 -41 -23 -91 -15 -29 5 -90 13 -134 16 -99 8 -132 27 -192 109 -100 135
-127 228 -121 411 4 115 30 235 50 235 4 0 19 22 33 50 40 78 140 122 267 116
48 -2 83 -11 122 -30z"/>
<path d="M6213 5285 c-54 -25 -77 -51 -89 -100 -12 -52 -46 -104 -88 -132
l-41 -28 55 -3 c30 -2 58 -9 62 -15 5 -7 8 -131 7 -277 -3 -299 -4 -292 75
-373 70 -72 135 -80 220 -28 34 21 86 87 86 109 0 17 -7 15 -39 -9 -33 -24
-89 -29 -123 -10 -51 27 -53 37 -56 328 l-3 272 108 3 c103 3 108 4 111 26 3
21 0 22 -55 22 -32 0 -82 3 -110 6 l-53 7 0 108 c0 59 -4 110 -8 113 -5 3 -31
-6 -59 -19z"/>
<path d="M6830 5081 c-104 -34 -204 -124 -240 -216 -19 -48 -24 -80 -24 -155
-1 -116 18 -176 80 -260 110 -149 275 -188 444 -104 56 28 74 44 99 84 17 28
35 50 41 50 15 0 61 73 51 83 -5 5 -31 -16 -60 -46 -60 -63 -128 -97 -211
-104 -46 -5 -64 -1 -106 20 -88 44 -172 155 -197 258 l-7 27 269 4 c309 5 307
4 297 77 -9 63 -56 159 -100 204 -62 63 -108 80 -216 84 -52 1 -106 -1 -120
-6z m137 -52 c45 -17 91 -69 113 -126 24 -65 26 -109 4 -117 -9 -3 -97 -6
-196 -6 l-181 0 7 63 c4 34 13 69 20 77 7 8 23 34 36 57 13 24 35 47 49 52 36
13 114 13 148 0z"/>
<path d="M4370 5071 l-115 -6 35 -19 c74 -39 70 -23 70 -294 0 -159 4 -258 12
-284 15 -50 79 -123 131 -150 81 -41 249 -8 312 62 11 12 28 26 38 32 18 9 19
6 15 -46 l-3 -55 115 6 c63 3 117 7 119 9 3 2 -15 21 -39 41 l-43 37 6 316 c3
173 9 324 12 336 7 21 6 21 -67 7 -40 -8 -97 -13 -126 -11 -55 3 -63 -8 -22
-29 13 -6 27 -17 31 -25 4 -7 9 -122 10 -255 l3 -243 -39 -41 c-49 -50 -89
-69 -151 -69 -56 0 -101 25 -129 72 -19 31 -20 54 -23 326 -3 267 -5 292 -20
290 -9 -1 -69 -4 -132 -7z"/>
<path d="M5372 5039 c-93 -47 -137 -91 -180 -179 -24 -50 -27 -66 -27 -165 0
-102 2 -115 31 -175 74 -156 247 -253 394 -220 95 21 184 79 221 145 12 22 39
58 59 81 137 150 62 418 -145 519 -52 26 -73 30 -165 33 l-105 4 -83 -43z
m243 -28 c126 -57 184 -241 136 -430 -37 -149 -92 -211 -185 -211 -65 0 -118
30 -170 97 -62 79 -80 154 -74 316 5 153 18 185 91 222 62 31 143 33 202 6z"/>
<path d="M6490 1940 c0 -5 5 -10 10 -10 6 0 10 5 10 10 0 6 -4 10 -10 10 -5 0
-10 -4 -10 -10z"/>
</g>
</svg>
